<svg xmlns="http://www.w3.org/2000/svg" viewBox="0 0 309.55 255.12">
  <path d="M24.78 173.41c0 1.89 55.08 26.91 59.19 25.33 3.1-.44 1.98-10.28 2.42-13.86 24.68-.58 28.49-16.42 39.89-15.97 10.37.41 15.81 16.67 40.57 17.59 26.3.98 33.91-16.1 44-16.07 12.16.04 14.54 17.81 42.09 18.21 23.88.35 34.02-15.29 38.79-15.75 6.68-.65 17.39-.67 17.81-11.57.22-5.71-9.98-15.01-30.33-6.6-20.34 8.41-14.15 13.49-24.94 13.1-10.79-.39-15.8-17.95-42.61-18.12-26.81-.17-32.01 16.87-42.6 16.34-10.59-.53-14.1-17.04-42.23-17.97-28.14-.93-30.42 15.45-39.68 15.53-.4-5.39.72-13.94-3.31-14.47-6.19.51-58.77 22.01-59.07 24.26Z" style="fill:#4db874"/>
  <path d="M29.83 173.44c9.58-5.05 44.61-19.25 53.1-21.45.64 1.6.67 5.4.69 7.58.01 1.47.03 2.91.12 4.18l.18 2.48 3.29-.03c4.87-.04 8.02-2.81 11.35-5.73 5.16-4.54 11.59-10.18 27.46-9.82l.69.02c16.08.53 23.33 6.55 29.16 11.38 3.92 3.25 7.61 6.31 13 6.58h.39c5.51.14 9.56-2.91 13.86-6.14 6.1-4.58 13.69-10.29 28.55-10.19h.91c14.43.34 21.52 6.11 27.78 11.21 4.24 3.45 8.25 6.71 13.79 6.91h.52c6.69.17 8.76-1.84 11.15-4.17 2.28-2.22 5.41-5.26 15.07-9.25 5.11-2.11 9.78-3.14 13.87-3.05 4.51.1 7.24 1.56 8.75 2.76 2.01 1.61 2.68 3.4 2.63 4.54-.29 7.29-5.41 8.28-13.2 8.95l-1.64.15c-2.57.25-4.64 1.85-7.78 4.28-6.01 4.65-15.09 11.67-30.51 11.45h-.48c-14.65-.34-21.17-5.99-26.93-10.98-4.2-3.64-8.17-7.08-14.41-7.22h-.32c-5.16-.02-9.18 2.8-13.83 6.06-6.58 4.62-14.78 10.36-29.22 10.03l-.8-.02c-13.68-.51-20.68-6.01-26.86-10.87-4.44-3.49-8.27-6.5-13.99-6.73-6.11-.14-10.24 3.02-14.61 6.36-5.71 4.36-12.19 9.31-25.28 9.62l-3.01.07-.28 2.26c-.13 1.09-.14 2.53-.14 4.21 0 1.89-.02 5.49-.48 7.2-8.29-1.89-42.94-17.25-52.53-22.6Z" style="fill:#4db874"/>
  <rect x="25.5" y="31.09" width="255.12" height="14.17" rx="7.09" ry="7.09" style="fill:#1d1d1b"/>
  <rect x="25.5" y="120.47" width="255.12" height="14.17" rx="7.09" ry="7.09" style="fill:#1d1d1b"/>
  <rect x="25.5" y="205.82" width="255.12" height="14.17" rx="7.09" ry="7.09" style="fill:#1d1d1b"/>
  <rect x="114.89" y="120.47" width="255.12" height="14.17" rx="7.09" ry="7.09" transform="rotate(90 242.445 127.555)" style="fill:#1d1d1b"/>
  <rect x="-63.88" y="120.47" width="255.12" height="14.17" rx="7.09" ry="7.09" transform="rotate(90 63.68 127.56)" style="fill:#1d1d1b"/>
  <path d="M225.82 59.36c-4.04.5-3.01 9.01-3.46 14.36-9.26-.15-11.37-16.45-39.52-15.72-28.14.72-31.82 17.11-42.42 17.57-10.6.45-15.62-16.53-42.43-16.55-26.81-.02-32 17.41-42.8 17.72-10.79.31-4.54-4.7-24.8-13.21C10.14 55.03-.16 64.2 0 69.88c.31 10.84 11.02 10.94 17.69 11.63 4.76.49 14.74 16.11 38.62 15.93 27.55-.2 30.13-17.85 42.28-17.8 10.09.04 17.53 17.07 43.84 16.28 24.77-.74 30.38-16.87 40.75-17.2 11.4-.37 15.04 15.4 39.72 16.16.4 3.56-.82 13.33 2.28 13.79 4.09 1.6 59.43-22.89 59.45-24.77-.28-2.24-52.63-23.98-58.81-24.53Z" style="fill:#4db874"/>
  <path d="M226.82 105.99c-.44-1.71-.42-5.29-.41-7.16.01-1.67.02-3.11-.1-4.19l-.26-2.25-3.01-.09c-13.08-.4-19.51-5.36-25.18-9.74-4.34-3.35-8.44-6.52-14.54-6.42-5.72.18-9.58 3.15-14.06 6.59-6.23 4.79-13.29 10.21-26.97 10.62l-.8.02c-14.44.22-22.58-5.55-29.11-10.18-4.62-3.28-8.61-6.11-13.77-6.12h-.32c-6.25.1-10.25 3.49-14.49 7.08-5.81 4.92-12.39 10.5-27.04 10.72h-.48c-15.41.12-24.42-6.93-30.39-11.59-3.11-2.43-5.16-4.04-7.73-4.31l-1.64-.16c-7.78-.72-12.9-1.74-13.11-8.99-.03-1.13.65-2.91 2.68-4.49 1.51-1.18 4.26-2.61 8.77-2.68 4.09-.06 8.74.99 13.83 3.13 9.62 4.04 12.72 7.08 14.98 9.3 2.37 2.33 4.42 4.34 11.11 4.24h.52c5.55-.17 9.58-3.38 13.86-6.79 6.31-5.02 13.46-10.71 27.89-10.93h.91c14.86 0 22.39 5.73 28.44 10.33 4.26 3.24 8.29 6.3 13.8 6.22h.39c5.39-.24 9.12-3.26 13.07-6.47 5.88-4.76 13.19-10.69 29.27-11.11h.69c15.87-.26 22.24 5.4 27.35 9.95 3.3 2.93 6.42 5.7 11.29 5.78l3.29.05.21-2.46c.11-1.26.14-2.7.16-4.16.04-2.16.11-5.94.77-7.53 8.47 2.25 43.35 16.62 52.88 21.7-9.65 5.25-44.45 20.27-52.76 22.1Z" style="fill:#4db874"/>
  <rect x="25.5" y="120.47" width="255.12" height="14.17" rx="7.09" ry="7.09" transform="rotate(90 153.06 127.56)" style="fill:#1d1d1b"/>
  <path d="M126.28 168.91c10.37.41 15.81 16.67 40.57 17.59 26.3.98 33.91-16.1 44-16.07l.82-20.73c-26.81-.17-32.01 16.87-42.6 16.34-10.59-.53-14.1-17.04-42.23-17.97" style="fill:#4db874"/>
  <path d="m126.02 150.65.69.02c16.08.53 23.33 6.55 29.16 11.38 3.92 3.25 7.61 6.31 13 6.58h.39c5.51.14 9.56-2.91 13.86-6.14 6.1-4.58 13.69-10.29 28.55-10.19h.91l-1.39 15.57h-.32c-5.16-.02-9.18 2.8-13.83 6.06-6.58 4.62-14.78 10.36-29.22 10.03l-.8-.02c-13.68-.51-20.68-6.01-26.86-10.87-4.44-3.49-8.27-6.5-13.99-6.73" style="fill:#4db874"/>
</svg>