<svg xmlns="http://www.w3.org/2000/svg" viewBox="0 0 167.49 100.12">
  <defs>
    <clipPath id="a">
      <path d="M8.95 23.73c-.16 7.17 4.15 12.35 4.15 12.35-1.56 2.36-4.28 5.74-4.37 11.87-.1 6.19 3.61 16.47 16.69 16.31C38.45 64.1 41.7 51.4 41.7 51.4h27.41S79.88 39.61 82 36.14c-1.5-2.62-12.34-14.62-12.34-14.62s-24.9-.13-27.97-.13c0-2.3-4.72-13.15-16.21-13.4-11.49-.26-16.37 8.65-16.53 15.73Zm27.35 4.01c2.41 0 24.04-.02 30.43.02 2.84 3.01 5.37 6.19 7.4 8.51-2.03 2.4-5.03 5.75-7.95 8.9H36.34s-.43 12.86-10.99 12.86c-3.28 0-5.81-.8-7.53-2.5-2.1-2.07-2.85-5.15-2.85-7.34v-.14c.06-3.7 1.47-5.77 2.83-7.78.18-.26 3.13-4.05 3.28-4.29l-3.18-3.89s-2.71-3.48-2.71-7.97v-.25c.01-.4.33-9.64 10.16-9.64 10.99 0 10.96 13.5 10.96 13.5Z" style="fill:none"/>
    </clipPath>
    <clipPath id="b">
      <path d="M82.27 26.44c1.42 1.9 7.33 8.33 8.25 9.71-2.14 3.13-10.44 10.4-9.79 13.17.24 1.53 1.79 2.19 4.55 2.09h35.49s3.25 12.7 16.28 12.86c13.09.16 16.79-10.12 16.69-16.31-.09-6.13-2.81-9.51-4.37-11.87 0 0 4.31-5.19 4.15-12.35-.16-7.09-5.04-15.99-16.53-15.73s-16.21 11.11-16.21 13.4c-2.23 0-23.92.07-35.57.1-1.02 0-3.41-.15-4.15 1.09-.95 1.6.75 3.21 1.22 3.84Zm54.86-12.2c9.83 0 10.15 9.23 10.16 9.64v.25c0 4.5-2.71 7.97-2.71 7.97l-3.18 3.89c.16.24 3.11 4.03 3.28 4.29 1.36 2 2.78 4.08 2.83 7.78v.14c0 2.19-.75 5.26-2.85 7.34-1.72 1.7-4.08 2.69-7.35 2.69-10.57 0-11.17-13.05-11.17-13.05H91.07c1.83-2.23 5.02-5.72 7.7-9-3.23-3.91-5.49-6.17-7.23-8.42 6.38-.03 32.23-.02 34.64-.02 0 0-.03-13.5 10.96-13.5Z" style="fill:none"/>
    </clipPath>
    <clipPath id="c">
      <path d="M48.13 93.02c-.06-.15-.11-.27-.13-.37-.05-.07-.07-.14-.07-.2s-.02-.13-.07-.2c-.32-.77-.62-1.55-.89-2.34-.27-.79-.57-1.58-.89-2.38-.07-.2-.14-.39-.19-.58-.05-.19-.12-.38-.22-.58-.15-.4-.3-.79-.45-1.19-.15-.4-.3-.79-.45-1.19a.827.827 0 0 1-.09-.28.827.827 0 0 0-.09-.28c-.52-1.24-1-2.49-1.43-3.75s-.9-2.51-1.39-3.75c-.2-.49-.38-.98-.56-1.47-.17-.48-.36-.97-.56-1.47l-.15-.45-.15-.45c-.17-.42-.33-.84-.48-1.24s-.31-.82-.48-1.24c-.12-.3-.23-.59-.32-.87s-.27-.5-.54-.65c-.17-.12-.4-.18-.69-.17-.29.01-.56.02-.84.02h-3.27a.2.2 0 0 1-.15.02c-.05-.01-.1 0-.15.02-.2.05-.36.11-.48.19-.22.17-.38.4-.46.69-.09.29-.19.56-.32.83a33.3 33.3 0 0 0-.63 1.6c-.2.54-.4 1.08-.59 1.6-.05.12-.09.24-.11.33-.02.1-.06.21-.11.33-.57 1.36-1.1 2.74-1.58 4.12-.48 1.39-1.01 2.76-1.58 4.12-.2.5-.38.98-.56 1.47-.17.48-.36.97-.56 1.47-.2.52-.4 1.05-.59 1.6-.2.54-.4 1.08-.59 1.6-.1.2-.17.4-.22.59-.05.2-.12.4-.22.59-.22.57-.44 1.15-.65 1.75-.21.59-.44 1.18-.69 1.75-.05.1-.1.22-.15.37-.05.15-.09.3-.13.46-.04.16-.05.32-.04.46.01.15.08.26.2.33.2.12.53.18.98.17.46-.01.85-.02 1.17-.02.22 0 .48 0 .78.02.3.01.59.02.87.02s.54-.02.78-.06c.23-.04.41-.11.54-.2.2-.15.34-.36.43-.63.09-.27.18-.53.28-.78.17-.45.33-.9.46-1.36.14-.46.3-.9.5-1.32.1-.25.19-.5.26-.74s.21-.45.41-.59c.27-.2.65-.29 1.13-.28.48.01.93.02 1.36.02h5.87c.12 0 .24 0 .35.02.11.01.23.02.35.02.25.05.45.13.59.24.15.11.26.24.33.39.07.15.14.32.2.5.06.19.13.39.2.61.15.37.29.76.43 1.15.14.4.27.79.39 1.19.1.22.18.45.24.67.06.22.15.43.28.63.12.22.32.37.59.45.15.05.3.07.46.06.16-.01.34-.02.54-.02h1.75c.3 0 .67.01 1.13.04s.79-.02.98-.15c.15-.07.24-.19.26-.33.02-.15.02-.3-.02-.46-.04-.16-.09-.32-.15-.46Zm-9.75-8.87c-.2.05-.43.07-.71.07h-3.56c-.3 0-.59-.01-.87-.04-.29-.02-.49-.12-.61-.3-.1-.25-.11-.47-.04-.67.07-.27.15-.53.22-.76.07-.23.16-.48.26-.72.27-.72.53-1.44.76-2.15.23-.72.5-1.42.8-2.12.12-.32.23-.66.32-1 .09-.35.23-.64.43-.89.05-.05.1-.09.15-.11.05-.02.1-.06.15-.11.15 0 .27.06.37.19.1.12.19.27.26.43.07.16.14.33.19.52.05.19.1.34.15.46.35.87.66 1.73.93 2.6s.57 1.72.89 2.56c.05.1.07.19.07.28s.02.18.07.28c.12.27.2.56.22.85.02.3-.12.51-.45.63Z" style="fill:none"/>
    </clipPath>
    <clipPath id="d">
      <path d="M70.5 71.26c-.2-.3-.45-.59-.74-.89l-.22-.22c-.12-.1-.23-.19-.32-.28-.09-.09-.19-.17-.32-.24-.15-.12-.3-.22-.45-.3s-.28-.16-.41-.26c-.35-.2-.72-.35-1.11-.46s-.79-.23-1.19-.35c-.12-.05-.24-.08-.33-.08s-.21-.01-.33-.04c-.12-.05-.26-.07-.41-.07s-.28-.02-.41-.07h-.19c-.2-.05-.41-.07-.63-.06-.22.01-.45.02-.67.02H52.04c-.05.03-.11.03-.17.02-.06-.01-.12 0-.17.02-.27.1-.46.22-.56.37-.12.2-.18.53-.17 1 .01.47.02.88.02 1.23v22.21c0 .27.01.54.04.8.02.26.11.45.26.58.15.12.34.19.58.2s.49.02.76.02h2.15c.2 0 .4.01.59.04.2.02.38.01.56-.04.35-.1.57-.24.67-.41.12-.2.18-.47.17-.82-.01-.35-.02-.67-.02-.96v-6.18c0-.43.12-.74.37-.91.2-.15.48-.22.84-.22h5.66c.15-.02.3-.04.45-.04s.3-.01.45-.04c.3-.07.59-.12.89-.15.3-.02.58-.09.85-.19.89-.3 1.69-.66 2.4-1.1.71-.43 1.31-1 1.8-1.69.12-.15.23-.3.32-.46.09-.16.18-.33.28-.5.05-.1.09-.19.13-.28.04-.09.08-.18.13-.28.17-.4.32-.82.45-1.28.12-.46.21-.96.26-1.5.07-1.36-.02-2.52-.28-3.49-.26-.97-.67-1.84-1.24-2.64Zm-4.08 6.09c-.1.32-.2.61-.3.87-.1.26-.22.5-.37.72-.57.74-1.4 1.18-2.49 1.3-1.09.12-2.29.19-3.6.19-.25 0-.51 0-.8.02-.28.01-.55.01-.8 0s-.47-.06-.67-.13a.917.917 0 0 1-.45-.33c-.12-.2-.19-.48-.19-.84v-5.42c0-.33.05-.6.15-.8.07-.2.23-.35.48-.45.07 0 .14 0 .2-.02.06-.01.13-.03.2-.06.59 0 1.23 0 1.89-.02.67-.01 1.32 0 1.95.02.63.03 1.22.09 1.76.2.54.11 1 .28 1.37.5.45.27.78.57 1 .89.22.32.41.76.56 1.3.07.27.12.61.13 1.02.01.41 0 .75-.06 1.02Z" style="fill:none"/>
    </clipPath>
    <clipPath id="e">
      <path d="M81.5 85.97V69.85c0-.32 0-.62-.02-.89-.01-.27-.08-.5-.2-.67-.12-.17-.31-.27-.56-.28-.25-.01-.51-.02-.78-.02h-3.19s-.11 0-.17.02c-.06.01-.13.02-.21.02-.22.1-.38.22-.48.37-.12.2-.18.53-.17 1 .01.47.02.88.02 1.23v22.21c0 .27.01.53.04.78.02.25.1.43.22.56.15.12.34.2.58.22.23.03.49.04.76.04h2.19c.2 0 .4.01.59.04.2.02.38.01.56-.04.35-.1.57-.24.67-.41.12-.2.18-.5.17-.89-.01-.4-.02-.75-.02-1.08v-6.09Z" style="fill:none"/>
    </clipPath>
    <clipPath id="f">
      <path d="M111.57 79.99c-.02-.12-.03-.27-.02-.43s0-.32-.06-.46-.07-.3-.07-.46-.02-.33-.07-.5c-.07-.27-.14-.54-.19-.8-.05-.26-.11-.51-.19-.76-.12-.37-.24-.72-.35-1.04a12.8 12.8 0 0 0-.39-1c-.2-.47-.43-.91-.71-1.32-.27-.41-.54-.81-.82-1.21-.1-.12-.21-.25-.33-.39s-.25-.27-.37-.39c-.22-.3-.51-.59-.85-.87-.35-.28-.68-.54-1-.76-1.02-.72-2.17-1.28-3.45-1.69-1.29-.41-2.81-.59-4.57-.54-.05.03-.12.03-.2 0-.09-.02-.16-.02-.2 0l-1.11.11c-.12.03-.24.04-.35.04s-.23.03-.35.07c-.35.1-.7.19-1.06.26-.36.07-.7.17-1.02.3-1.39.57-2.56 1.25-3.53 2.04-.97.79-1.82 1.78-2.56 2.97-.25.37-.46.77-.63 1.19-.17.42-.36.84-.56 1.26-.15.4-.26.8-.33 1.21s-.17.82-.3 1.24c-.05.12-.07.25-.07.39s-.02.27-.07.39c-.05.15-.07.3-.06.46.01.16 0 .33-.06.5v.22c-.03.12-.03.24 0 .35.02.11.02.23 0 .35-.05.12-.07.32-.07.58s.02.45.07.58c.02.15.02.3 0 .46-.03.16-.03.32 0 .46.05.1.07.2.06.32-.01.11 0 .23.02.35.05.2.09.39.11.58.02.19.06.37.11.54.02.1.04.19.04.28s.02.19.07.32c.12.4.24.79.33 1.17s.22.75.37 1.1c.64 1.49 1.48 2.77 2.51 3.84s2.28 1.94 3.77 2.58c.27.12.55.24.83.33l.84.3c.2.05.4.09.59.13s.4.08.59.13.38.08.56.09c.17.01.36.04.56.09h.41c.12.02.24.03.35.02.11-.01.23 0 .35.02.07.02.23.04.48.06.25.01.42 0 .52-.02l1.23-.11c.12-.02.25-.04.39-.04s.27-.02.39-.07c.27-.05.54-.1.82-.15s.54-.12.82-.22c1.86-.62 3.42-1.5 4.68-2.66 1.26-1.15 2.26-2.59 3.01-4.33.17-.4.32-.8.43-1.23s.23-.85.35-1.3c.05-.17.09-.35.11-.52s.06-.35.11-.52c.05-.27.07-.54.07-.82s.02-.53.07-.78v-.48c.05-.15.07-.4.06-.76-.01-.36-.04-.61-.09-.76v-.3Zm-5.75 1.85v.65c0 .11-.01.22-.04.32l-.11.89c-.1.32-.18.64-.24.97-.06.32-.15.62-.28.89-.42 1.07-.93 1.93-1.54 2.6s-1.44 1.21-2.51 1.63c-.22.1-.46.17-.71.2s-.5.08-.74.13c-.12.05-.24.07-.33.06-.1-.01-.21 0-.33.02h-.78c-.15 0-.3-.02-.45-.07-.12-.02-.24-.03-.35-.02-.11.01-.23 0-.35-.06-.35-.1-.67-.2-.98-.3-.31-.1-.6-.24-.87-.41-.15-.07-.29-.15-.43-.22a1.36 1.36 0 0 1-.39-.3c-.59-.42-1.09-.97-1.49-1.65-.4-.68-.73-1.42-1-2.21-.1-.25-.17-.51-.2-.78s-.09-.54-.17-.82c0-.1 0-.19-.02-.28-.01-.09-.02-.18-.02-.28-.03-.1-.04-.2-.04-.32s-.01-.22-.04-.32v-.41c-.05-.12-.07-.35-.06-.69.01-.33.04-.56.09-.69.02-.12.02-.26 0-.41a.708.708 0 0 1 .04-.41c.02-.1.04-.19.04-.28s.01-.18.04-.28c.07-.27.13-.54.17-.8s.09-.53.17-.8c.37-1.11.86-2.07 1.47-2.86s1.43-1.41 2.47-1.86c.22-.1.46-.18.72-.24.26-.06.53-.12.8-.17.12-.05.24-.07.33-.06.1.01.2 0 .3-.02.05-.02.1-.03.17-.02.06.01.12 0 .17-.02 1.83 0 3.26.39 4.29 1.17 1.03.78 1.81 1.8 2.36 3.06.12.27.22.54.3.82l.22.82c.05.15.07.28.07.41.05.17.08.35.09.54.01.19.04.38.09.58.05.1.07.19.06.28-.01.09 0 .18.02.28v.63c.05.12.07.3.07.54s-.03.42-.07.54Z" style="fill:none"/>
    </clipPath>
    <clipPath id="g">
      <path d="M136.19 86.41c0-.59-.05-1.09-.15-1.49-.02-.05-.04-.11-.04-.17s-.01-.13-.04-.2c-.1-.25-.19-.5-.28-.74-.09-.25-.19-.47-.32-.67-.42-.67-.87-1.21-1.36-1.63s-1.06-.84-1.73-1.26c-.42-.27-.9-.48-1.43-.63s-1.05-.31-1.54-.48c-.12-.05-.25-.07-.37-.07s-.25-.02-.37-.07c-.69-.2-1.39-.38-2.1-.54-.71-.16-1.39-.35-2.06-.58-.3-.1-.59-.18-.87-.24-.29-.06-.56-.15-.84-.28-.5-.2-.92-.4-1.28-.61-.36-.21-.64-.58-.83-1.1a1.78 1.78 0 0 1-.11-.5c-.03-.21-.01-.4.04-.58.12-.67.34-1.17.65-1.5.31-.33.75-.62 1.32-.87.35-.15.74-.25 1.19-.3a8.795 8.795 0 0 1 2.7.13c.43.09.8.19 1.1.32.32.17.66.38 1 .63.2.15.38.36.56.63.17.27.31.53.41.78.12.27.22.54.3.82.08.27.26.47.56.59.15.05.33.07.56.07h3.01c.27 0 .52-.02.74-.06.22-.04.4-.13.52-.28.1-.12.15-.32.17-.58.01-.26 0-.49-.06-.69a17.6 17.6 0 0 0-.39-1.37 5.44 5.44 0 0 0-.58-1.22c-1.81-2.92-5.11-4.34-9.91-4.27-.05.05-.16.06-.32.04a.99.99 0 0 0-.35 0c-.25.05-.49.08-.72.09-.24.01-.48.04-.72.09-.64.15-1.25.31-1.82.48-.57.17-1.1.41-1.6.71-.77.5-1.44 1.05-2.02 1.65s-1.06 1.34-1.43 2.21c-.1.25-.17.5-.22.74s-.11.51-.19.78c0 .2-.01.35-.04.45-.05.27-.06.62-.04 1.04.02.42.06.74.11.97.07.27.14.53.19.76.05.24.12.46.22.69.27.64.64 1.21 1.11 1.71.47.5.99.93 1.56 1.3.45.27.93.51 1.45.72.52.21 1.06.42 1.63.61.2.05.38.1.54.15s.34.1.54.15c.1.05.19.07.26.07s.17.02.3.07c.37.12.76.23 1.17.32s.81.19 1.21.32c.2.05.38.09.54.13s.33.08.5.13c.45.15.9.29 1.36.43s.87.32 1.24.54c.2.1.33.17.41.22.59.37 1.01.89 1.26 1.56.05.12.09.3.13.52s.03.42-.02.59c-.2.87-.54 1.49-1.04 1.86s-1.16.67-2 .89c-.12.05-.25.08-.39.09-.14.01-.27.03-.39.06-.17 0-.3.01-.37.04-.2.05-.47.07-.82.07s-.62-.02-.82-.07h-.19c-.2-.05-.38-.07-.54-.07s-.33-.02-.5-.08c-.79-.22-1.46-.51-2.01-.85-.15-.1-.3-.21-.45-.33s-.29-.26-.41-.41c-.17-.22-.33-.46-.48-.71a4.09 4.09 0 0 1-.37-.82c-.12-.3-.21-.59-.26-.87a.79.79 0 0 0-.48-.61c-.17-.07-.37-.11-.59-.11h-2.97c-.3 0-.56.02-.8.06s-.42.15-.54.35c-.12.15-.17.37-.15.65.02.29.06.53.11.72.05.17.08.33.09.48.01.15.04.3.09.45.22.82.53 1.52.93 2.12.62.99 1.39 1.79 2.3 2.39.92.61 1.98 1.11 3.19 1.5.27.1.57.17.89.22.32.05.63.11.93.19.12.02.24.04.33.06s.21.02.33.02c.15.05.32.07.5.06s.36 0 .54.06h.37c.12.02.33.04.63.04s.51-.01.63-.04c.05-.02.12-.03.2-.02s.15.02.2.02h.3c.15-.05.3-.07.46-.06.16.01.33 0 .5-.06.37-.07.74-.13 1.11-.17s.73-.12 1.08-.24c.49-.17.97-.35 1.43-.52s.9-.4 1.32-.67c.15-.1.29-.2.43-.3.14-.1.27-.2.39-.3.17-.12.33-.25.48-.39s.28-.28.41-.43c.07-.12.16-.23.26-.32s.2-.19.3-.32c.25-.35.46-.71.63-1.08.17-.37.33-.78.48-1.22.07-.25.13-.5.17-.74.04-.25.08-.51.13-.78v-.67c.05-.12.05-.25 0-.37Z" style="fill:none"/>
    </clipPath>
  </defs>
  <g style="clip-path:url(#a)">
    <path style="fill:#44ab4f" d="M0 0h167.49v64.64H0z"/>
  </g>
  <g style="clip-path:url(#b)">
    <path style="fill:#44ab4f" d="M0 0h167.49v64.64H0z"/>
  </g>
  <path d="M38.53 82.38c0-.09-.03-.18-.07-.28-.32-.84-.62-1.7-.89-2.56s-.58-1.73-.93-2.6c-.05-.12-.1-.28-.15-.46-.05-.19-.11-.36-.19-.52-.07-.16-.16-.3-.26-.43a.47.47 0 0 0-.37-.19c-.05.05-.1.09-.15.11-.05.03-.1.06-.15.11-.2.25-.34.54-.43.89-.09.35-.19.68-.32 1-.3.69-.56 1.4-.8 2.12-.24.72-.49 1.44-.76 2.15-.1.25-.19.49-.26.72-.07.24-.15.49-.22.76-.07.2-.06.42.04.67.12.17.33.27.61.3.28.02.58.04.87.04h3.56c.27 0 .51-.02.71-.07.32-.12.47-.33.45-.63-.02-.3-.1-.58-.22-.85a.61.61 0 0 1-.07-.28ZM65.79 74.01c-.22-.32-.56-.62-1-.89-.37-.22-.83-.39-1.37-.5-.54-.11-1.13-.18-1.76-.2-.63-.02-1.28-.03-1.95-.02-.67.01-1.3.02-1.89.02-.07.03-.14.04-.2.06-.06.01-.13.02-.2.02-.25.1-.41.25-.48.45-.1.2-.15.46-.15.8v5.42c0 .36.06.64.19.84.1.15.25.26.45.33s.42.12.67.13c.25.01.51.01.8 0 .28-.01.55-.02.8-.02 1.31 0 2.51-.06 3.6-.19 1.09-.12 1.92-.56 2.49-1.3.15-.22.27-.46.37-.72.1-.26.2-.55.3-.87.05-.27.07-.61.06-1.02-.01-.41-.06-.75-.13-1.02-.15-.54-.33-.98-.56-1.3ZM105.82 80.14a.677.677 0 0 1-.02-.28c.01-.09 0-.18-.06-.28-.05-.2-.08-.39-.09-.58-.01-.19-.04-.36-.09-.54 0-.12-.02-.26-.07-.41l-.22-.82a4.81 4.81 0 0 0-.3-.82c-.54-1.26-1.33-2.28-2.36-3.06-1.03-.78-2.46-1.17-4.29-1.17-.05.03-.11.03-.17.02-.06-.01-.12 0-.17.02-.1.03-.2.03-.3.02-.1-.01-.21 0-.33.06-.27.05-.54.11-.8.17-.26.06-.5.14-.72.24-1.04.45-1.86 1.07-2.47 1.86-.61.79-1.1 1.75-1.47 2.86-.07.27-.13.54-.17.8s-.09.53-.17.8c-.03.1-.04.19-.04.28s-.01.18-.04.28c-.05.12-.06.26-.04.41.02.15.02.29 0 .41-.05.12-.08.35-.09.69-.01.33 0 .56.06.69v.41c.02.1.04.2.04.32s.01.22.04.32c0 .1 0 .19.02.28.01.09.02.18.02.28.07.27.13.54.17.82s.1.53.2.78c.27.79.61 1.53 1 2.21.4.68.89 1.23 1.49 1.65.12.12.25.22.39.3.14.07.28.15.43.22.27.17.56.31.87.41.31.1.64.2.98.3.12.05.24.07.35.06.11-.01.23 0 .35.02.15.05.3.07.45.07h.78c.12-.02.24-.03.33-.02.1.01.21 0 .33-.06.25-.05.5-.09.74-.13s.48-.1.71-.2c1.06-.42 1.9-.97 2.51-1.63s1.12-1.53 1.54-2.6c.12-.27.22-.57.28-.89.06-.32.14-.64.24-.97l.11-.89c.02-.1.04-.2.04-.32v-.65c.05-.12.07-.3.07-.54s-.03-.41-.07-.54v-.63Z" style="fill:none"/>
  <g style="clip-path:url(#c)">
    <path style="fill:#44ab4f" d="M11.32 65.65h142.21v34.47H11.32z"/>
  </g>
  <g style="clip-path:url(#d)">
    <path style="fill:#44ab4f" d="M11.32 65.65h142.21v34.47H11.32z"/>
  </g>
  <g style="clip-path:url(#e)">
    <path style="fill:#44ab4f" d="M11.32 65.65h142.21v34.47H11.32z"/>
  </g>
  <g style="clip-path:url(#f)">
    <path style="fill:#44ab4f" d="M11.32 65.65h142.21v34.47H11.32z"/>
  </g>
  <g style="clip-path:url(#g)">
    <path style="fill:#44ab4f" d="M11.32 65.65h142.21v34.47H11.32z"/>
  </g>
</svg>