<?xml version="1.0" encoding="UTF-8"?>
<svg version="1.1" xmlns="http://www.w3.org/2000/svg" width="606" height="363">
<path d="M0 0 C199.98 0 399.96 0 606 0 C606 119.79 606 239.58 606 363 C406.02 363 206.04 363 0 363 C0 243.21 0 123.42 0 0 Z " fill="#FEFEFE" transform="translate(0,0)"/>
<path d="M0 0 C12.61832827 10.60497731 22.02942573 26.71761233 23.8125 43.25 C25.28725209 64.30408177 21.2774854 80.05491838 10.89404297 98.30566406 C10.53713379 98.94729492 10.18022461 99.58892578 9.8125 100.25 C9.19193726 101.25703979 9.19193726 101.25703979 8.55883789 102.28442383 C8.18940063 103.25738403 8.18940063 103.25738403 7.8125 104.25 C9.22411781 106.91841302 10.65897285 109.22786108 12.375 111.6875 C23.47898025 128.52726039 27.7702313 148.22061677 24.1953125 168.2421875 C19.82267619 186.54534656 10.45356713 202.27902578 -5.69921875 212.4609375 C-24.38872335 222.04637211 -46.02842447 224.28070052 -66.1875 218.25 C-84.62685931 212.20280639 -98.0292521 199.0072548 -107.1875 182.25 C-112.1875 171.92365967 -112.1875 171.92365967 -112.1875 167.25 C-113.40836902 167.25414807 -113.40836902 167.25414807 -114.65390205 167.25837994 C-134.45914659 167.32463598 -154.26437202 167.37427875 -174.06970406 167.40543652 C-183.64742132 167.42090471 -193.2250646 167.44199334 -202.80273438 167.47631836 C-211.15073314 167.50622215 -219.49867832 167.52557535 -227.84672916 167.53226548 C-232.26687622 167.53617608 -236.68687 167.54536555 -241.10696793 167.56719017 C-245.26837712 167.58757078 -249.42957004 167.59383062 -253.5910244 167.58932304 C-255.11722044 167.59014754 -256.6434238 167.59610389 -258.16957664 167.60761642 C-260.25655459 167.62258571 -262.34272051 167.61893814 -264.42971802 167.61076355 C-265.59670794 167.61352893 -266.76369785 167.61629431 -267.9660511 167.61914349 C-271.65470397 167.19646344 -274.03610614 166.19140657 -277.1875 164.25 C-279.94670087 160.1111987 -280.10292092 157.10763682 -279.1875 152.25 C-273.03590012 138.34391857 -259.55288294 126.47793577 -249.21289062 115.61645508 C-244.38187176 110.6890122 -244.38187176 110.6890122 -240.1875 105.25 C-240.58364599 102.08083211 -241.72151523 100.28833509 -243.8125 97.9296875 C-244.6183252 97.01074707 -244.6183252 97.01074707 -245.44042969 96.07324219 C-246.01696289 95.43032227 -246.59349609 94.78740234 -247.1875 94.125 C-248.07163574 93.12194824 -248.07163574 93.12194824 -248.97363281 92.09863281 C-252.26557994 88.37254334 -255.5977159 84.68323707 -258.9375 81 C-278.74989861 59.11547897 -278.74989861 59.11547897 -279.5625 51.9375 C-279.1875 48.25 -279.1875 48.25 -277 45.375 C-272.4695471 41.95199114 -268.17795081 42.12530739 -262.62590027 42.12974548 C-261.6578155 42.12846385 -261.6578155 42.12846385 -260.67017347 42.12715632 C-258.51600828 42.12551431 -256.36192164 42.13100186 -254.20776367 42.13647461 C-252.66024782 42.13675678 -251.11273184 42.13659816 -249.56521606 42.1360321 C-245.36935322 42.13574531 -241.173519 42.14162305 -236.9776628 42.14860606 C-232.59076695 42.15485916 -228.20387044 42.15544495 -223.81697083 42.15663147 C-215.51208668 42.15973901 -207.20721571 42.16794463 -198.90233737 42.17798096 C-189.44653856 42.18916001 -179.99073913 42.19465707 -170.53493536 42.19967639 C-151.08578277 42.21012771 -131.63664244 42.227716 -112.1875 42.25 C-112.20035538 41.30139603 -112.21321075 40.35279205 -112.22645569 39.3754425 C-112.19003126 36.45308471 -111.95708743 35.02922142 -110.68359375 32.48046875 C-110.19608643 31.49518188 -110.19608643 31.49518188 -109.69873047 30.48999023 C-109.34439941 29.81266846 -108.99006836 29.13534668 -108.625 28.4375 C-108.26293457 27.73117432 -107.90086914 27.02484863 -107.52783203 26.29711914 C-104.62566588 20.77869268 -101.28412917 15.95572032 -97.1875 11.25 C-96.52041016 10.37021484 -96.52041016 10.37021484 -95.83984375 9.47265625 C-73.14762922 -19.70304814 -28.05851481 -21.08639901 0 0 Z " fill="#4FE827" transform="translate(580.1875,13.75)"/>
<path d="M0 0 C1.21623047 0.47566406 1.21623047 0.47566406 2.45703125 0.9609375 C14.69512288 6.26223065 21.18491731 16.98846219 26 29 C27.9368619 35.19510976 28.96018021 41.26218027 29.53173828 47.71411133 C29.66408371 49.19914909 29.66408371 49.19914909 29.79910278 50.71418762 C29.86539886 51.46850571 29.93169495 52.22282379 30 53 C30.64254069 52.99224863 31.28508139 52.98449726 31.94709301 52.976511 C47.63251646 52.79215361 63.3162622 52.68616815 79.00267315 52.66578102 C86.58893582 52.65406119 94.17337688 52.6165045 101.7590332 52.51660156 C108.37634042 52.42951898 114.9917868 52.39246317 121.60966426 52.41372812 C125.10988508 52.42327398 128.60610028 52.40896802 132.10562706 52.33458328 C155.02491598 51.87310293 155.02491598 51.87310293 161.51675415 57.01898193 C164.3939 59.8242114 166.71211614 62.85576897 168.86046791 66.24369431 C170.6242498 68.96212602 172.71378704 71.34591502 174.8125 73.8125 C175.50859375 74.68132812 176.2046875 75.55015625 176.921875 76.4453125 C180.15000231 80.41372465 183.56561588 84.21001208 187 88 C185.4186938 91.73922129 183.06769602 94.29649737 180.3125 97.25 C177.35459165 100.44483718 174.40880654 103.64214025 171.5625 106.9375 C168.51245181 110.44614732 165.39011515 113.88463088 162.25 117.3125 C161.77763916 117.82868896 161.30527832 118.34487793 160.81860352 118.87670898 C159.55136389 120.25633031 158.27601305 121.62848916 157 123 C156.55972064 123.54194158 156.11944128 124.08388315 155.66582012 124.6422472 C153.36081262 126.5209797 151.84559669 126.36964573 148.89375305 126.36076355 C147.8378598 126.36488754 146.78196655 126.36901154 145.69407654 126.3732605 C144.53602005 126.36247467 143.37796356 126.35168884 142.18481445 126.34057617 C140.35536285 126.34123329 140.35536285 126.34123329 138.48895264 126.34190369 C135.14397832 126.34017042 131.79955789 126.32511444 128.45468163 126.30418181 C124.95932153 126.28544141 121.46395423 126.28366666 117.96855164 126.28010559 C111.34933597 126.27077734 104.73026876 126.24615311 98.1111185 126.21605712 C90.57554216 126.18253729 83.03995878 126.1660332 75.50432646 126.15097082 C60.0027983 126.11960415 44.50141829 126.06682862 29 126 C29.00435059 126.61261688 29.00870117 127.22523376 29.01318359 127.85641479 C29.01825928 129.06613449 29.01825928 129.06613449 29.0234375 130.30029297 C29.02778809 131.09853485 29.03213867 131.89677673 29.03662109 132.71920776 C28.8356304 145.2370756 22.23747865 159.51907651 13.6171875 168.58203125 C4.36872808 176.69118769 -4.76964839 179.52699259 -16.9375 179.375 C-17.86240234 179.38660156 -18.78730469 179.39820313 -19.74023438 179.41015625 C-30.09990067 179.36659774 -39.03505305 176.76576348 -47 170 C-56.32537643 160.54561638 -59.26858574 148.75684305 -59.24658203 135.79980469 C-58.97025943 120.1819001 -49.85811932 108.41428626 -40.70703125 96.50390625 C-40.2373291 95.88660645 -39.76762695 95.26930664 -39.28369141 94.63330078 C-38 93 -38 93 -36.01171875 90.83984375 C-34.73461144 88.98813366 -34.73461144 88.98813366 -35.48828125 86.62109375 C-37.34840249 83.39592229 -39.68598264 80.78944357 -42.1875 78.0625 C-47.90277072 71.596133 -51.57408757 64.91056164 -55 57 C-55.36996094 56.1646875 -55.73992188 55.329375 -56.12109375 54.46875 C-60.22725289 42.93500521 -58.8734132 29.33032134 -53.78125 18.37890625 C-48.48913696 8.72079995 -40.3303003 1.49909009 -29.734375 -1.6796875 C-19.69661368 -4.04341839 -9.50308074 -4.19705182 0 0 Z " fill="#FEFEFE" transform="translate(86,29)"/>
<path d="M0 0 C8.3676012 7.59948156 13.34984757 17.92810751 14.25390625 29.15234375 C14.55002388 37.79706804 13.13472676 44.9646504 10 53 C9.69578125 53.81597656 9.3915625 54.63195312 9.078125 55.47265625 C6.09643492 62.34201148 1.288466 67.8275713 -3.54272461 73.46801758 C-4.10096924 74.12568115 -4.65921387 74.78334473 -5.234375 75.4609375 C-5.74194336 76.04665527 -6.24951172 76.63237305 -6.77246094 77.23583984 C-8.1625315 79.23358247 -8.77573819 80.57257357 -9 83 C-8.15867212 84.82864706 -8.15867212 84.82864706 -6.71875 86.50390625 C-5.95498047 87.48302979 -5.95498047 87.48302979 -5.17578125 88.48193359 C-4.34626953 89.51181396 -4.34626953 89.51181396 -3.5 90.5625 C-2.38268598 92.00179058 -1.26809927 93.4432025 -0.15625 94.88671875 C0.38773438 95.58974121 0.93171875 96.29276367 1.4921875 97.01708984 C12.21202555 111.11464889 16.8794282 124.585303 14.57421875 142.265625 C12.34284605 152.72432896 7.14820917 161.31637526 -1.58984375 167.56640625 C-13.57471008 174.69516791 -27.69831129 176.02856504 -41.29296875 173.3515625 C-54.60913311 168.39769531 -62.88116582 157.35030546 -68.64135742 144.88330078 C-72.1035128 136.91305782 -74 128.71448383 -74 120 C-121.85 120 -169.7 120 -219 120 C-217.18929768 116.37859536 -215.65071878 114.34212751 -212.9375 111.4375 C-208.87088613 107.00651753 -205.05673554 102.42947504 -201.28125 97.75 C-198.23352999 94.07603615 -195.00968665 90.57980378 -191.75 87.09375 C-189.80581969 85.02706642 -189.80581969 85.02706642 -189 82 C-190.53098505 79.8486757 -192.06006316 77.95820242 -193.8125 76 C-194.56321777 75.13713379 -194.56321777 75.13713379 -195.32910156 74.25683594 C-199.37441366 69.63034479 -203.53978323 65.11320741 -207.6953125 60.5859375 C-217 50.14576271 -217 50.14576271 -217 48 C-169.81 48 -122.62 48 -74 48 C-74 45.69 -74 43.38 -74 41 C-72.43445795 26.70806478 -67.23855572 10.39671997 -56.1953125 0.609375 C-39.30733666 -11.77113398 -17.10936925 -13.09936083 0 0 Z " fill="#FEFEFE" transform="translate(564,35)"/>
<path d="M0 0 C2.50483218 2.18399719 4.84284291 4.44695234 7.15625 6.83203125 C7.93613281 7.61449219 8.71601562 8.39695312 9.51953125 9.203125 C16.87946098 16.93414362 25.94937565 28.35018278 26.22265625 39.5546875 C26.18978516 40.68197266 26.18978516 40.68197266 26.15625 41.83203125 C26.74909696 41.82096973 27.34194391 41.80990822 27.95275593 41.79851151 C42.41828765 41.53280233 56.88360079 41.33459049 71.35103321 41.21028519 C78.3477913 41.14856277 85.34291477 41.06451732 92.33862305 40.92675781 C99.09500684 40.7937752 105.84969498 40.72454522 112.60730553 40.69350433 C115.1802404 40.67139586 117.7530864 40.62821957 120.3252964 40.56327057 C141.53219861 40.04927326 141.53219861 40.04927326 147.09115601 44.39001465 C149.97218167 47.20816853 152.05559595 50.39628021 154.15625 53.83203125 C155.63329583 55.6839078 157.13013852 57.52037597 158.65625 59.33203125 C159.378125 60.22921875 160.1 61.12640625 160.84375 62.05078125 C163.35599269 65.07226232 165.98069974 67.9559995 168.65625 70.83203125 C173.73981698 76.31055769 178.49033064 81.99575671 183.15625 87.83203125 C184.16824692 89.05293277 185.18132656 90.2729374 186.1953125 91.4921875 C187.22451023 92.75085101 188.25316269 94.00996058 189.28125 95.26953125 C190.02858398 96.15680908 190.02858398 96.15680908 190.79101562 97.06201172 C194.13233166 101.20776266 194.13233166 101.20776266 194.234375 103.87109375 C192.67203144 106.71274762 190.79254152 109.23849767 188.78125 111.76953125 C188.33571777 112.33873291 187.89018555 112.90793457 187.43115234 113.49438477 C182.95717312 119.16761514 178.30021077 124.6818919 173.59033203 130.15966797 C172.12474703 131.86876862 170.66892427 133.58579258 169.21484375 135.3046875 C163.75603297 141.74124899 158.19752275 148.05820199 152.42797852 154.21875 C151.97092529 154.70730469 151.51387207 155.19585937 151.04296875 155.69921875 C150.37757127 156.39234035 150.37757127 156.39234035 149.69873142 157.09946442 C148.10404245 158.82245462 148.10404245 158.82245462 146.74216366 160.85604095 C144.40597346 164.02977348 142.55245689 166.42209524 138.68460274 167.557724 C135.6968687 167.81581485 132.80283173 167.82234145 129.80493164 167.74023438 C128.12090744 167.74198669 128.12090744 167.74198669 126.40286255 167.74377441 C122.70610193 167.73821768 119.0126005 167.67607088 115.31640625 167.61328125 C112.7481004 167.59835437 110.17977173 167.58696947 107.61143494 167.57897949 C101.55138263 167.55159572 95.49266772 167.48860501 89.43311828 167.40818357 C82.53119648 167.3185823 75.62921742 167.27473338 68.72685826 167.23462009 C54.53603266 167.15113009 40.34618269 167.01053122 26.15625 166.83203125 C25.95758835 167.51366333 25.7589267 168.19529541 25.554245 168.89758301 C25.15747307 170.24282043 25.15747307 170.24282043 24.75268555 171.61523438 C24.4921489 172.50311646 24.23161224 173.39099854 23.96318054 174.30578613 C18.41286902 191.6820616 4.73438941 205.90008983 -11.15209961 214.21948242 C-16.8435002 217.03380029 -22.59948367 218.69070765 -28.84375 219.83203125 C-29.60300781 220.01507813 -30.36226563 220.198125 -31.14453125 220.38671875 C-49.90153829 223.48121774 -69.57827614 219.38494971 -85.28515625 208.76171875 C-100.18158681 197.52685357 -107.65723983 181.8539861 -110.84375 163.83203125 C-112.3155031 144.62658474 -109.9416826 129.3582217 -99.84375 112.83203125 C-99.27785156 111.87683594 -98.71195313 110.92164062 -98.12890625 109.9375 C-96.71541452 107.55950802 -95.28728895 105.19185912 -93.84375 102.83203125 C-94.29105469 102.1771875 -94.73835938 101.52234375 -95.19921875 100.84765625 C-99.67116176 94.09683396 -103.07683586 87.4362746 -105.84375 79.83203125 C-106.23820312 78.85621094 -106.63265625 77.88039063 -107.0390625 76.875 C-112.36869026 61.76196463 -112.58394816 41.50556824 -105.84375 26.83203125 C-105.40804687 25.81496094 -104.97234375 24.79789063 -104.5234375 23.75 C-96.72108119 6.80225884 -83.96023184 -4.35222403 -66.84375 -11.16796875 C-44.25373531 -18.7571984 -18.84175124 -14.36424717 0 0 Z M-74.21875 25.20703125 C-83.15360462 35.97929549 -84.59728073 47.0882859 -83.84375 60.83203125 C-83.52666278 63.69093057 -82.83535976 66.13563426 -81.84375 68.83203125 C-81.50988281 69.83234375 -81.17601562 70.83265625 -80.83203125 71.86328125 C-77.64437576 80.36369589 -73.25914647 86.60163104 -67.33862305 93.4140625 C-61.33788543 100.33332521 -61.33788543 100.33332521 -60.84375 103.83203125 C-62.19043883 106.11418226 -63.43530288 107.80359869 -65.15625 109.76953125 C-66.09696234 110.91558009 -67.03303597 112.06544956 -67.96484375 113.21875 C-68.44550293 113.81091309 -68.92616211 114.40307617 -69.42138672 115.01318359 C-80.18269869 128.77421589 -86.38484041 142.10518687 -84.84375 159.83203125 C-82.92902876 170.88204901 -78.75560312 180.20567868 -69.84375 187.26953125 C-57.90869449 195.44169692 -42.20889924 195.6281995 -28.3046875 193.21875 C-16.75897543 189.44227069 -9.55028628 181.17703553 -3.84375 170.83203125 C-3.44414063 170.16429687 -3.04453125 169.4965625 -2.6328125 168.80859375 C1.37961307 161.6586324 3.24983034 153.27467197 3.18847656 145.11694336 C3.1814975 143.91055458 3.1814975 143.91055458 3.17437744 142.67979431 C3.16839539 142.0700325 3.16241333 141.46027069 3.15625 140.83203125 C3.79032681 140.84217097 4.42440363 140.8523107 5.07769489 140.86275768 C20.54495379 141.10626109 36.0115412 141.28798727 51.48024464 141.40196514 C58.96108377 141.45855765 66.44063939 141.53563069 73.9206543 141.66186523 C80.44449772 141.7719102 86.96741134 141.84256476 93.49215716 141.86700469 C96.94385303 141.8812812 100.39289037 141.91453359 103.84372902 141.99506187 C119.83661771 143.15371344 119.83661771 143.15371344 133.83531475 137.01968861 C135.878185 134.78245221 137.53094639 132.38389916 139.15625 129.83203125 C140.34224767 128.4582604 141.54604608 127.0992335 142.78125 125.76953125 C143.31878906 125.14046875 143.85632813 124.51140625 144.41015625 123.86328125 C146.47404311 121.46233904 148.59413144 119.11686357 150.71875 116.76953125 C154.26321445 112.84270162 157.73542903 108.86684573 161.15625 104.83203125 C159.88688053 102.09840372 158.53216334 99.90922703 156.5390625 97.65234375 C156.02005371 97.05969727 155.50104492 96.46705078 154.96630859 95.85644531 C154.41023926 95.22963867 153.85416992 94.60283203 153.28125 93.95703125 C152.10893367 92.62148101 150.93706977 91.28553352 149.765625 89.94921875 C149.16814453 89.26956055 148.57066406 88.58990234 147.95507812 87.88964844 C144.6091914 84.06240451 141.31981578 80.18660215 138.02783203 76.31298828 C136.74638664 74.81153703 135.45201971 73.32113803 134.15625 71.83203125 C133.71737552 71.28692492 133.27850103 70.7418186 132.82632732 70.1801939 C130.50524423 68.30650967 128.93631008 68.44792493 125.97407532 68.43330383 C124.90135376 68.42076569 123.8286322 68.40822754 122.72340393 68.39530945 C120.95826698 68.39746208 120.95826698 68.39746208 119.1574707 68.3996582 C117.91832916 68.38946655 116.67918762 68.3792749 115.40249634 68.36877441 C112.00389623 68.34373344 108.60572854 68.33191406 105.20707345 68.32592034 C101.65557469 68.31654818 98.10420149 68.2903458 94.55278015 68.26591492 C87.82741272 68.2222142 81.10206961 68.19368927 74.37660331 68.17059153 C66.72001726 68.14355893 59.06355731 68.09964629 51.40706122 68.05430281 C35.65685558 67.96140542 19.90662621 67.88974811 4.15625 67.83203125 C4.02637695 66.81520264 3.89650391 65.79837402 3.76269531 64.75073242 C3.58671942 63.3963046 3.4106053 62.04189474 3.234375 60.6875 C3.14945801 60.01972534 3.06454102 59.35195068 2.97705078 58.66394043 C1.01492601 43.67752486 -4.27230669 30.02505811 -15.84375 19.83203125 C-34.01721868 7.35395161 -58.84306014 8.75334099 -74.21875 25.20703125 Z " fill="#44C435" transform="translate(111.84375,14.16796875)"/>
<path d="M0 0 C2.40641944 1.21147605 4.6353129 2.5203386 6.9375 3.9375 C7.81148438 4.46601563 8.68546875 4.99453125 9.5859375 5.5390625 C20.9841947 13.43614855 27.59487702 25.88888038 30.6796875 39.12109375 C33.9306481 57.31311301 31.90537987 74.57396642 21.86328125 90.29296875 C13.50692719 101.76812432 1.99037521 108.54992017 -11.875 111.5 C-27.91102589 113.70102316 -43.79544548 110.94141851 -57.20703125 101.4140625 C-68.37900179 92.31414004 -74.77348293 78.99860486 -77.0625 64.9375 C-78.68838504 46.93419175 -76.17335438 30.02005883 -65.0625 15.28515625 C-57.71015374 6.55424506 -49.06220665 0.91658722 -38.0625 -2.0625 C-27.01335462 -5.74554846 -10.55947948 -4.88656763 0 0 Z " fill="#4DE02B" transform="translate(398.0625,251.0625)"/>
<path d="M0 0 C1.55851433 -0.01429802 1.55851433 -0.01429802 3.14851379 -0.02888489 C4.8436335 -0.02751778 4.8436335 -0.02751778 6.57299805 -0.02612305 C7.73792282 -0.03040817 8.9028476 -0.0346933 10.10307312 -0.03910828 C12.57879995 -0.04486446 15.0545437 -0.04534242 17.53027344 -0.04101562 C21.28114705 -0.03788649 25.03120822 -0.06119147 28.78198242 -0.08666992 C31.19148664 -0.08894615 33.60099297 -0.08964491 36.01049805 -0.08862305 C37.67221794 -0.10243767 37.67221794 -0.10243767 39.36750793 -0.11653137 C50.84262377 -0.04996045 62.18640233 1.40470199 71.0222168 9.2746582 C78.11778637 16.52932127 81.21077635 25.35545246 81.4597168 35.3996582 C81.28252152 41.1838183 80.39459135 46.00755139 78.0222168 51.2746582 C77.5478418 52.3471582 77.0734668 53.4196582 76.5847168 54.5246582 C71.88495351 62.79624159 65.1905599 67.0978187 56.19018555 69.9152832 C48.84149002 71.82382619 41.43567827 71.80525261 33.8972168 71.8996582 C31.7700739 71.93621697 29.64311187 71.97669853 27.5161438 72.02230835 C25.61320322 72.06167673 23.71003645 72.08962299 21.80688477 72.11694336 C19.11559386 71.95928408 19.11559386 71.95928408 18.0222168 73.2746582 C17.87451065 75.92727787 17.78722445 78.55721627 17.7409668 81.2121582 C17.72255737 82.0074292 17.70414795 82.8027002 17.68518066 83.62207031 C17.62624709 86.17285555 17.57350421 88.72370842 17.5222168 91.2746582 C17.45477753 94.62897406 17.38110942 97.98306478 17.3034668 101.3371582 C17.28989136 102.11631592 17.27631592 102.89547363 17.2623291 103.69824219 C17.13501861 109.16185639 17.13501861 109.16185639 16.0222168 110.2746582 C14.39964135 110.37382391 12.77281848 110.40545597 11.1472168 110.4074707 C10.16237305 110.40875977 9.1775293 110.41004883 8.1628418 110.41137695 C7.12643555 110.40750977 6.0900293 110.40364258 5.0222168 110.3996582 C3.46760742 110.40545898 3.46760742 110.40545898 1.8815918 110.41137695 C0.89674805 110.41008789 -0.0880957 110.40879883 -1.1027832 110.4074707 C-2.01286133 110.40634277 -2.92293945 110.40521484 -3.8605957 110.40405273 C-5.9777832 110.2746582 -5.9777832 110.2746582 -6.9777832 109.2746582 C-7.0775233 107.8878824 -7.10852982 106.49608293 -7.11149597 105.10572815 C-7.11576096 104.20692932 -7.12002594 103.30813049 -7.12442017 102.38209534 C-7.12396698 101.38830368 -7.12351379 100.39451202 -7.12304688 99.37060547 C-7.12640549 98.33003998 -7.1297641 97.28947449 -7.13322449 96.21737671 C-7.14276661 92.758594 -7.14467921 89.29985953 -7.14575195 85.84106445 C-7.1489622 83.44831827 -7.15232609 81.05557229 -7.15583801 78.66282654 C-7.16183741 73.63979639 -7.16367708 68.61678348 -7.16308594 63.59375 C-7.16298425 57.14255854 -7.17663928 50.691477 -7.19385815 44.24031162 C-7.20495108 39.29651884 -7.20700598 34.35275286 -7.20647621 29.4089489 C-7.20766032 27.02980101 -7.21210598 24.65065251 -7.21980858 22.2715168 C-7.22955423 18.95030033 -7.22675198 15.62932544 -7.22070312 12.30810547 C-7.22632263 11.31633804 -7.23194214 10.32457062 -7.23773193 9.30274963 C-7.23353745 8.40113098 -7.22934296 7.49951233 -7.22502136 6.5705719 C-7.22556613 5.78465951 -7.2261109 4.99874712 -7.22667217 4.1890192 C-6.65518273 -0.20666413 -3.69378022 0.01858641 0 0 Z " fill="#46CB32" transform="translate(183.977783203125,249.725341796875)"/>
<path d="M0 0 C1.06669922 0.00322266 2.13339844 0.00644531 3.23242188 0.00976562 C4.29525391 -0.00634766 5.35808594 -0.02246094 6.453125 -0.0390625 C7.98163086 -0.0400293 7.98163086 -0.0400293 9.54101562 -0.04101562 C10.4761499 -0.04399658 11.41128418 -0.04697754 12.37475586 -0.05004883 C15.2675977 0.39498131 16.07294009 0.99435241 17.79492188 3.32226562 C18.68286133 5.15307617 18.68286133 5.15307617 19.40820312 7.20898438 C19.6835791 7.97436523 19.95895508 8.73974609 20.24267578 9.52832031 C20.52804199 10.34719727 20.8134082 11.16607422 21.10742188 12.00976562 C21.72533952 13.73783483 22.34383828 15.46569634 22.96289062 17.19335938 C23.42381104 18.49055908 23.42381104 18.49055908 23.89404297 19.81396484 C25.18858756 23.41834185 26.55502617 26.99409786 27.91992188 30.57226562 C30.29458176 36.83032134 32.41782609 43.14389114 34.42382812 49.52929688 C35.47169244 52.6262804 36.7907504 55.54634241 38.16992188 58.50976562 C40.88924274 64.3923268 43.09015339 70.39741287 45.23242188 76.50976562 C48.37915204 85.45838368 48.37915204 85.45838368 51.74414062 94.32617188 C52.03039307 95.05489502 52.31664551 95.78361816 52.61157227 96.53442383 C53.3638762 98.43097501 54.12964671 100.32216918 54.89648438 102.21289062 C55.85341474 105.52470178 55.58425191 107.04990706 54.79492188 110.32226562 C51.19117725 110.46727206 47.58817946 110.55623326 43.98242188 110.63476562 C42.95826172 110.67666016 41.93410156 110.71855469 40.87890625 110.76171875 C38.10758127 110.80715031 35.52965352 110.77529364 32.79492188 110.32226562 C30.79492188 108.31445312 30.79492188 108.31445312 29.79492188 105.32226562 C29.2619478 104.01538398 28.72661669 102.70946212 28.18945312 101.40429688 C27.6569725 99.98303377 27.12972029 98.55980205 26.60742188 97.13476562 C26.33478516 96.41095703 26.06214844 95.68714844 25.78125 94.94140625 C23.79492188 89.58977032 23.79492188 89.58977032 23.79492188 87.32226562 C10.26492187 87.32226562 -3.26507813 87.32226562 -17.20507812 87.32226562 C-19.18507813 92.27226562 -21.16507813 97.22226562 -23.20507812 102.32226562 C-26.20507812 109.32226562 -26.20507812 109.32226562 -27.20507812 110.32226562 C-28.83980694 110.40926905 -30.47821868 110.42927625 -32.11523438 110.41992188 C-33.10458984 110.41669922 -34.09394531 110.41347656 -35.11328125 110.41015625 C-36.15419922 110.40177734 -37.19511719 110.39339844 -38.26757812 110.38476562 C-39.31236328 110.38025391 -40.35714844 110.37574219 -41.43359375 110.37109375 C-44.02414472 110.35926475 -46.61458371 110.34278252 -49.20507812 110.32226562 C-49.59886316 105.13073233 -48.2293665 101.34473892 -46.14257812 96.69726562 C-43.41844223 90.37746447 -40.98387117 84.02474903 -38.76757812 77.50976562 C-36.49372652 70.86263279 -34.05381041 64.32382416 -31.39257812 57.82226562 C-28.06180779 49.67619979 -25.0670843 41.43477163 -22.14257812 33.13476562 C-19.30395543 25.09642793 -16.4372508 17.08703299 -13.20507812 9.19726562 C-12.78730103 8.1682312 -12.78730103 8.1682312 -12.36108398 7.1184082 C-9.41501762 0.07787136 -7.20754969 0.05021092 0 0 Z " fill="#43BF37" transform="translate(110.205078125,249.677734375)"/>
<path d="M0 0 C1.05703125 0.00684814 2.1140625 0.01369629 3.203125 0.02075195 C10.86516056 0.17860407 17.21481894 0.91284389 24.125 4.4375 C24.85203125 4.788125 25.5790625 5.13875 26.328125 5.5 C33.69747407 9.55032926 40.18024126 16.34366182 42.73828125 24.44140625 C43.39427736 27.82740636 43.30925083 30.99815114 43.125 34.4375 C40.72440183 35.63779908 39.23139351 35.55209743 36.5546875 35.53515625 C35.65878906 35.53193359 34.76289062 35.52871094 33.83984375 35.52539062 C32.43412109 35.51282227 32.43412109 35.51282227 31 35.5 C30.05511719 35.49548828 29.11023438 35.49097656 28.13671875 35.48632812 C25.79941613 35.47452357 23.46223939 35.45805759 21.125 35.4375 C20.7846875 34.68984375 20.444375 33.9421875 20.09375 33.171875 C16.4499993 25.5526055 16.4499993 25.5526055 9.734375 20.953125 C1.47008844 19.32006239 -7.53199787 18.96976979 -14.875 23.4375 C-17.29058112 26.40207683 -17.17758261 29.75214991 -17.3359375 33.4375 C-16.65933853 36.37325148 -15.16450373 37.5401431 -12.875 39.4375 C-6.41358915 42.800809 1.02805787 44.21567364 8.0625 45.9375 C22.83374751 49.56713143 34.58881859 52.61288622 43.93359375 65.4453125 C48.36081178 72.84820167 48.23170309 81.21545188 46.47265625 89.515625 C42.99403235 100.20530189 35.64955989 107.04974775 25.875 112.125 C8.85275692 118.08278508 -10.04372939 117.17513075 -26.25 109.5625 C-30.52509786 107.31476814 -33.80140181 105.23429777 -36.875 101.4375 C-37.37515625 100.86386719 -37.8753125 100.29023438 -38.390625 99.69921875 C-43.40187349 93.62976973 -46.54806773 86.44700594 -45.875 78.4375 C-43.42513068 75.98763068 -42.737922 76.18118689 -39.375 76.171875 C-38.488125 76.16929687 -37.60125 76.16671875 -36.6875 76.1640625 C-35.759375 76.17179687 -34.83125 76.17953125 -33.875 76.1875 C-32.946875 76.17976563 -32.01875 76.17203125 -31.0625 76.1640625 C-29.7321875 76.16792969 -29.7321875 76.16792969 -28.375 76.171875 C-27.5603125 76.17413086 -26.745625 76.17638672 -25.90625 76.17871094 C-23.875 76.4375 -23.875 76.4375 -21.875 78.4375 C-21.23257913 80.04776016 -20.63327375 81.6754723 -20.0625 83.3125 C-17.79094878 89.11664743 -15.26990533 91.24889551 -9.703125 94.01171875 C-5.82304211 95.64477075 -2.11198426 95.89901004 2.0625 95.8125 C3.1158252 95.7983606 3.1158252 95.7983606 4.19042969 95.78393555 C10.85965192 95.58955854 15.44794687 94.71299516 20.625 90.3125 C22.73228276 86.27354137 23.01863836 82.89756784 22.125 78.4375 C16.70500633 70.027165 2.7632933 68.45269514 -6.3125 66.0625 C-32.22800251 58.97839725 -32.22800251 58.97839725 -39.18359375 47.2265625 C-42.79742462 39.49871655 -43.35944951 30.46140416 -40.9375 22.25 C-36.94931457 13.37064377 -28.68873864 6.08622094 -19.70825195 2.59521484 C-13.0695373 0.44566746 -6.95452544 -0.06912497 0 0 Z " fill="#51EE25" transform="translate(484.875,247.5625)"/>
<path d="M0 0 C8.42092106 7.56017955 12.45682064 15.93748128 13.12988281 27.16699219 C13.22972808 29.63286763 13.2811364 32.09483101 13.3125 34.5625 C13.33014404 35.35358154 13.34778809 36.14466309 13.3659668 36.9597168 C13.35485202 46.71344016 9.83023313 55.22635582 4 63 C-1.85829304 68.53498768 -7.90804664 70.37714677 -15.8125 70.3125 C-16.88262329 70.30404053 -16.88262329 70.30404053 -17.97436523 70.29541016 C-25.74644598 70.11588353 -31.54532539 68.32476285 -37.33203125 62.98828125 C-45.83684522 52.85022432 -48.05602589 39.83477621 -47 27 C-45.19234563 16.36518667 -42.11248166 7.10306103 -33.078125 0.62109375 C-23.29763644 -5.83182257 -10.09089662 -6.3598088 0 0 Z " fill="#FDFEFD" transform="translate(392,272)"/>
<path d="M0 0 C0.886875 -0.00257813 1.77375 -0.00515625 2.6875 -0.0078125 C4.0796875 0.00378906 4.0796875 0.00378906 5.5 0.015625 C6.428125 0.00789062 7.35625 0.00015625 8.3125 -0.0078125 C9.6428125 -0.00394531 9.6428125 -0.00394531 11 0 C11.8146875 0.00225586 12.629375 0.00451172 13.46875 0.00683594 C15.5 0.265625 15.5 0.265625 17.5 2.265625 C17.75447559 4.17719269 17.75447559 4.17719269 17.76069641 6.55480957 C17.76778122 7.45498306 17.77486603 8.35515656 17.78216553 9.28260803 C17.77968811 10.27280441 17.77721069 11.26300079 17.7746582 12.28320312 C17.7823246 13.8442704 17.7823246 13.8442704 17.79014587 15.43687439 C17.80409024 18.89026579 17.8030816 22.34345873 17.80078125 25.796875 C17.80466522 28.18819249 17.80899926 30.5795093 17.81376648 32.9708252 C17.82123892 37.98789708 17.82092978 43.00489861 17.81567383 48.02197266 C17.80987475 54.46535453 17.82681606 60.90844937 17.8500185 67.35178375 C17.8647174 72.29129737 17.86563285 77.23074122 17.86250877 82.17027283 C17.86302382 84.54663156 17.86829566 86.92299402 17.87832069 89.29933167 C17.89059473 92.61576245 17.88394798 95.93162584 17.87231445 99.24804688 C17.88378006 100.73334145 17.88378006 100.73334145 17.89547729 102.24864197 C17.88846298 103.14881546 17.88144867 104.04898895 17.8742218 104.97644043 C17.87438954 105.761054 17.87455729 106.54566757 17.87473011 107.35405731 C17.68923871 108.30028332 17.68923871 108.30028332 17.5 109.265625 C13.66405456 111.82292196 10.50351901 111.56037078 6.0625 111.515625 C5.29873047 111.52335937 4.53496094 111.53109375 3.74804688 111.5390625 C2.63719727 111.53519531 2.63719727 111.53519531 1.50390625 111.53125 C0.83174072 111.52899414 0.1595752 111.52673828 -0.53295898 111.52441406 C-2.84365815 111.22041244 -4.44828475 110.34099298 -6.5 109.265625 C-6.54668124 95.34911553 -6.58183691 81.43261816 -6.60362434 67.51604652 C-6.61407912 61.05461545 -6.62826915 54.59323682 -6.65087891 48.13183594 C-6.67254697 41.90083676 -6.68455585 35.66988815 -6.68975449 29.43885422 C-6.69346112 27.05691099 -6.70069882 24.67497066 -6.71146011 22.29304886 C-6.72589478 18.96695131 -6.72798131 15.64106503 -6.72705078 12.31494141 C-6.73424133 11.32160294 -6.74143188 10.32826447 -6.74884033 9.30482483 C-6.74471634 7.95022911 -6.74471634 7.95022911 -6.74050903 6.56826782 C-6.74235262 5.78105661 -6.74419621 4.99384541 -6.74609566 4.18277931 C-6.20927709 0.00081185 -3.56621324 0.0098748 0 0 Z " fill="#48D52D" transform="translate(286.5,249.734375)"/>
<path d="M0 0 C1.16402344 -0.02449219 2.32804687 -0.04898437 3.52734375 -0.07421875 C10.63871064 -0.09837968 15.34797863 0.51942628 21.375 4.375 C25.63540348 8.77283585 25.72555691 13.96217651 25.65625 19.8359375 C25.11193165 24.74992259 22.97154656 27.96628245 19.25 31.25 C12.06667138 34.06086772 3.99010132 33.50888573 -3.625 33.625 C-4.89947998 33.65726685 -4.89947998 33.65726685 -6.19970703 33.69018555 C-7.40022705 33.69659058 -7.40022705 33.69659058 -8.625 33.703125 C-9.346875 33.7124707 -10.06875 33.72181641 -10.8125 33.73144531 C-11.410625 33.61381836 -12.00875 33.49619141 -12.625 33.375 C-14.9956746 29.8189881 -14.88231429 28.24413819 -14.890625 24.02734375 C-14.89320313 22.78275391 -14.89578125 21.53816406 -14.8984375 20.25585938 C-14.89070312 18.95455078 -14.88296875 17.65324219 -14.875 16.3125 C-14.88273438 15.00732422 -14.89046875 13.70214844 -14.8984375 12.35742188 C-14.89585937 11.11412109 -14.89328125 9.87082031 -14.890625 8.58984375 C-14.88836914 7.44636475 -14.88611328 6.30288574 -14.88378906 5.12475586 C-14.19520704 -2.19175289 -5.58225288 0.00606108 0 0 Z " fill="#FDFEFD" transform="translate(215.625,268.625)"/>
<path d="M0 0 C1.83886719 0.60229492 1.83886719 0.60229492 4 2 C5.37207031 4.80981445 5.37207031 4.80981445 6.578125 8.36328125 C6.79442566 8.99227829 7.01072632 9.62127533 7.23358154 10.26933289 C7.68749699 11.59929363 8.13422036 12.9317278 8.57421875 14.26635742 C9.24597594 16.30031588 9.94121521 18.32501505 10.640625 20.34960938 C14.29873999 31.14889577 14.29873999 31.14889577 14 36 C9.52530163 37.49156612 5.12413221 37.18437766 0.4375 37.1875 C-0.53380859 37.19974609 -1.50511719 37.21199219 -2.50585938 37.22460938 C-3.43333984 37.22654297 -4.36082031 37.22847656 -5.31640625 37.23046875 C-6.59173218 37.23663208 -6.59173218 37.23663208 -7.89282227 37.24291992 C-10 37 -10 37 -12 35 C-11.69301735 29.25503898 -9.7946757 24.40573962 -7.625 19.125 C-5.43430156 13.71323223 -3.38535055 8.31520845 -1.62646484 2.74560547 C-1 1 -1 1 0 0 Z " fill="#F8FCF7" transform="translate(112,281)"/>
</svg>
